<svg width="66" height="47" viewBox="0 0 66 47" fill="none" xmlns="http://www.w3.org/2000/svg">
<path fill-rule="evenodd" clip-rule="evenodd" d="M18.9573 0.138101H19.1361L19.1253 0.132009V0H37.5523C53.792 0 65.3255 7.5244 65.3255 22.7712C65.3255 38.7441 53.5269 46.2024 38.4803 46.2024H21.9587C19.9412 46.742 17.7387 47.0006 15.4443 47.0006C7.29128 47.0006 0 43.1724 0 36.374C0 31.9518 3.24794 29.3777 7.6227 29.3777C9.87637 29.3777 11.9312 30.1697 13.1243 31.4898C10.0089 31.6218 8.55069 34.1959 8.55069 37.5621C8.55069 42.1163 10.9369 45.7465 15.4443 45.7465C20.6144 45.7465 22.603 41.7203 22.603 35.384V8.32253C22.603 3.96631 22.0064 1.9862 18.9573 0.27011V0.138101ZM32.7799 44.4864V5.34667C33.0013 3.80099 33.4742 2.66619 34.3831 1.71609H36.9558C47.7601 1.71609 54.5874 9.30649 54.5874 22.7712C54.5874 37.556 47.6939 44.4864 37.5523 44.4864H32.7799Z" fill="url(#paint0_linear_103_853)"/>
<defs>
<linearGradient id="paint0_linear_103_853" x1="76.5" y1="-29" x2="39.5681" y2="-47.5784" gradientUnits="userSpaceOnUse">
<stop stop-color="#BE39F6"/>
<stop offset="1" stop-color="#772FF5"/>
</linearGradient>
</defs>
</svg>
