<svg width="234" height="710" viewBox="0 0 234 710" fill="none" xmlns="http://www.w3.org/2000/svg">
<path fill-rule="evenodd" clip-rule="evenodd" d="M-415.418 174.041L-413.591 172.986L-413.737 172.987L-414.516 171.638L-226.17 62.8954C-60.1805 -32.9384 102.131 -24.0529 192.151 131.866C286.457 295.21 209.897 441.108 56.1031 529.901L-112.768 627.399C-130.203 644.823 -151.189 660.464 -174.641 674.004C-257.974 722.117 -355.102 725.996 -395.241 656.473C-421.351 611.25 -403.351 565.759 -358.636 539.943C-335.601 526.643 -309.921 522.617 -289.932 529.076C-320.996 548.81 -320.703 583.74 -300.828 618.163C-273.939 664.737 -228.116 687.778 -182.045 661.18C-129.2 630.669 -132.646 577.761 -170.057 512.964L-329.833 236.224C-355.552 191.676 -373.341 174.947 -414.638 175.391L-415.418 174.041ZM-226.17 529.901L-243.382 145.736C-250.245 128.622 -252.111 114.227 -248.431 99.1472L-222.135 83.9652C-111.702 20.2064 -145.498 57.5391 -66 195.234C21.2921 346.428 -89.8415 469.228 -193.5 529.076L-226.17 529.901Z" fill="url(#paint0_linear_103_886)"/>
<path d="M-450.711 382.618C-419.23 364.442 -380.486 375.167 -362.481 406.353C-344.476 437.538 -354.559 476.455 -386.041 494.631C-418.164 513.177 -456.909 502.452 -474.914 471.266C-492.919 440.081 -482.835 401.164 -450.711 382.618Z" fill="url(#paint1_linear_103_886)"/>
<defs>
<linearGradient id="paint0_linear_103_886" x1="907" y1="-166.499" x2="263.202" y2="-608.114" gradientUnits="userSpaceOnUse">
<stop stop-opacity="0.2"/>
<stop offset="0.517822" stop-color="white" stop-opacity="0.0563585"/>
<stop offset="1" stop-opacity="0"/>
</linearGradient>
<linearGradient id="paint1_linear_103_886" x1="907" y1="-166.499" x2="263.202" y2="-608.114" gradientUnits="userSpaceOnUse">
<stop stop-opacity="0.2"/>
<stop offset="0.517822" stop-color="white" stop-opacity="0.0563585"/>
<stop offset="1" stop-opacity="0"/>
</linearGradient>
</defs>
</svg>
