<svg width="79" height="79" viewBox="0 0 79 79" fill="none" xmlns="http://www.w3.org/2000/svg">
<g clip-path="url(#clip0_103_893)">
<path d="M30.7725 56.7486C30.1564 56.7488 29.5526 56.5756 29.0302 56.2489C26.5123 54.6732 24.3822 52.5498 22.7985 50.0369C21.2149 47.5239 20.2184 44.6861 19.8834 41.7347C19.5483 38.7834 19.8833 35.7944 20.8634 32.9904C21.8434 30.1864 23.4433 27.6396 25.544 25.5396C27.6446 23.4395 30.1919 21.8404 32.9962 20.8611C35.8005 19.8819 38.7895 19.5477 41.7408 19.8837C44.6921 20.2196 47.5296 21.2168 50.0421 22.8012C52.5546 24.3856 54.6773 26.5163 56.2523 29.0347C56.4811 29.4016 56.6354 29.8099 56.7064 30.2364C56.7774 30.6628 56.7637 31.0991 56.6661 31.5203C56.5685 31.9415 56.3889 32.3393 56.1375 32.6911C55.8862 33.0429 55.568 33.3417 55.2011 33.5705C54.8343 33.7993 54.426 33.9536 53.9995 34.0246C53.573 34.0956 53.1367 34.0819 52.7156 33.9843C52.2944 33.8867 51.8965 33.707 51.5448 33.4557C51.193 33.2043 50.8942 32.8861 50.6654 32.5193C49.6151 30.8405 48.1996 29.4202 46.5244 28.3642C44.8491 27.3082 42.9573 26.6437 40.9896 26.4201C39.022 26.1965 37.0293 26.4197 35.1598 27.0729C33.2904 27.7262 31.5923 28.7927 30.1922 30.1931C28.792 31.5935 27.7258 33.2917 27.0728 35.1612C26.4199 37.0308 26.197 39.0236 26.4209 40.9912C26.6448 42.9588 27.3096 44.8505 28.3659 46.5256C29.4222 48.2007 30.8427 49.6159 32.5217 50.6659C33.128 51.045 33.5944 51.6112 33.8503 52.2789C34.1062 52.9466 34.1377 53.6794 33.9401 54.3666C33.7425 55.0538 33.3265 55.658 32.755 56.0877C32.1835 56.5175 31.4876 56.7495 30.7725 56.7486Z" fill="url(#paint0_linear_103_893)"/>
<path fill-rule="evenodd" clip-rule="evenodd" d="M63.2798 1.94595C64.9702 0.689296 67.0188 0.00735064 69.1251 0.000123558C70.9156 -0.000859287 72.6725 0.485229 74.2079 1.40632C75.7432 2.32742 76.9991 3.64882 77.8409 5.22899C78.6828 6.80917 79.0789 8.58859 78.9869 10.3767C78.8949 12.1647 78.3182 13.8941 77.3186 15.3795C76.3191 16.865 74.9342 18.0505 73.3125 18.8091C71.6907 19.5678 69.8931 19.871 68.1122 19.6863C66.3313 19.5015 64.6343 18.8358 63.2027 17.7604C61.7712 16.685 60.6592 15.2405 59.9858 13.5815C48.164 15.0061 37.1479 20.309 28.6607 28.6607C20.375 37.1936 15.0606 48.17 13.5058 59.9618C15.6636 60.8073 17.4534 62.3879 18.5593 64.4246C19.6653 66.4613 20.0162 68.8231 19.5503 71.0934C19.0843 73.3636 17.8314 75.3963 16.0127 76.8327C14.194 78.2692 11.9263 79.017 9.60988 78.9442C7.29346 78.8715 5.07718 77.9829 3.35216 76.4352C1.62713 74.8874 0.504254 72.7801 0.181672 70.4851C-0.140911 68.1901 0.35754 65.8549 1.58906 63.8917C2.82058 61.9284 4.70602 60.4632 6.91263 59.7547C8.55606 46.2923 14.5594 33.7374 24.0063 24.0062C33.6691 14.4862 46.2517 8.49057 59.7324 6.98274C60.3462 4.96782 61.5894 3.2026 63.2798 1.94595ZM8.04638 71.862C8.58769 72.2237 9.2241 72.4168 9.87513 72.4168C10.7479 72.416 11.5847 72.069 12.2018 71.4518C12.819 70.8347 13.166 69.9979 13.1668 69.1251C13.1668 68.4741 12.9737 67.8377 12.612 67.2964C12.2504 66.7551 11.7363 66.3332 11.1348 66.084C10.5333 65.8349 9.87148 65.7697 9.23296 65.8967C8.59444 66.0237 8.00792 66.3372 7.54757 66.7976C7.08722 67.2579 6.77372 67.8444 6.64671 68.4829C6.5197 69.1215 6.58489 69.7833 6.83402 70.3848C7.08316 70.9863 7.50506 71.5004 8.04638 71.862ZM67.2964 12.612C67.8377 12.9737 68.4741 13.1668 69.1251 13.1668C69.9979 13.166 70.8347 12.819 71.4518 12.2018C72.069 11.5847 72.416 10.7479 72.4168 9.87512C72.4168 9.22409 72.2237 8.58768 71.8621 8.04637C71.5004 7.50506 70.9863 7.08316 70.3848 6.83402C69.7833 6.58488 69.1215 6.5197 68.483 6.6467C67.8444 6.77371 67.2579 7.08722 66.7976 7.54756C66.3372 8.00791 66.0237 8.59443 65.8967 9.23295C65.7697 9.87147 65.8349 10.5333 66.084 11.1348C66.3332 11.7363 66.7551 12.2503 67.2964 12.612ZM62.5417 26.3336H55.9583C54.2129 26.3356 52.5396 27.0299 51.3054 28.264C50.0712 29.4982 49.377 31.1716 49.375 32.917V39.5003C49.377 41.2457 50.0712 42.919 51.3054 44.1532C52.5396 45.3874 54.2129 46.0816 55.9583 46.0836H62.5417C64.2871 46.0816 65.9604 45.3874 67.1946 44.1532C68.4288 42.919 69.123 41.2457 69.125 39.5003V32.917C69.123 31.1716 68.4288 29.4982 67.1946 28.264C65.9604 27.0299 64.2871 26.3356 62.5417 26.3336ZM55.9583 39.5003V32.917H62.5417L62.545 39.5003H55.9583ZM39.5002 49.3751H32.9168C31.1714 49.3771 29.4981 50.0714 28.2639 51.3055C27.0297 52.5397 26.3355 54.2131 26.3335 55.9585V62.5418C26.3355 64.2872 27.0297 65.9605 28.2639 67.1947C29.4981 68.4289 31.1714 69.1231 32.9168 69.1251H39.5002C41.2456 69.1231 42.9189 68.4289 44.1531 67.1947C45.3872 65.9605 46.0815 64.2872 46.0835 62.5418V55.9585C46.0815 54.2131 45.3872 52.5397 44.1531 51.3055C42.9189 50.0714 41.2456 49.3771 39.5002 49.3751ZM32.9168 62.5418V55.9585H39.5002L39.5035 62.5418H32.9168Z" fill="url(#paint1_linear_103_893)"/>
</g>
<defs>
<linearGradient id="paint0_linear_103_893" x1="54.3574" y1="12.7109" x2="22.0912" y2="18.1725" gradientUnits="userSpaceOnUse">
<stop stop-color="#409CF8"/>
<stop offset="0.421284" stop-color="#55C4F9"/>
<stop offset="1" stop-color="#6378F7"/>
</linearGradient>
<linearGradient id="paint1_linear_103_893" x1="86.0001" y1="4.5001" x2="54.6927" y2="-16.6404" gradientUnits="userSpaceOnUse">
<stop stop-color="#BE39F6"/>
<stop offset="0.52689" stop-color="#C672FF"/>
<stop offset="1" stop-color="#772FF5"/>
</linearGradient>
<clipPath id="clip0_103_893">
<rect width="79" height="79" fill="white"/>
</clipPath>
</defs>
</svg>
