<svg width="79" height="79" viewBox="0 0 79 79" fill="none" xmlns="http://www.w3.org/2000/svg">
<path d="M79 39.5003C79 38.6603 78.9852 36.445 74.0934 32.9229C76.8275 30.938 79 28.6407 79 26.3336C79 21.4313 69.2181 16.5551 65.0137 14.6874L59.4508 12.2137C53.151 9.26434 46.4122 7.36267 39.5 6.58362C32.587 7.36236 25.8475 9.26462 19.5476 12.2153L13.9846 14.6857C9.78184 16.5551 0 21.4313 0 26.3336C0 28.6407 2.17415 30.9383 4.90656 32.9229C0.0144834 36.445 0 38.6603 0 39.5003C0 41.8091 2.17711 44.1086 4.91215 46.0938C0.0200794 49.6106 0 51.7677 0 52.667C0 57.5692 9.78185 62.4455 13.9863 64.3132L19.5492 66.7869C25.849 69.7362 32.5878 71.6379 39.5 72.417C46.413 71.6382 53.1525 69.736 59.4524 66.7852L65.0153 64.3148C69.2181 62.4455 79 57.5692 79 52.667C79 51.8269 78.9852 49.6116 74.0934 46.0895C76.8275 44.1047 79 41.8074 79 39.5003ZM16.6608 20.7019L22.2237 18.2315C27.6924 15.6773 33.5178 13.9696 39.5 13.167C45.4826 13.9695 51.3084 15.6766 56.778 18.2299L62.3409 20.7036C65.7461 22.1275 68.9344 24.0227 71.8123 26.3336C68.9336 28.6448 65.7448 30.5405 62.3392 31.9653L56.7763 34.4341C51.3077 36.9888 45.4823 38.6971 39.5 39.5003C33.5174 38.6978 27.6916 36.9906 22.222 34.4374L16.6608 31.9624C13.2551 30.539 10.0662 28.6442 7.18768 26.3336C10.0664 24.0225 13.2552 22.1268 16.6608 20.7019ZM13.9863 37.9799L19.5492 40.4536C25.849 43.4029 32.5878 45.3046 39.5 46.0836C46.413 45.3049 53.1525 43.4026 59.4524 40.4519L65.0153 37.9832C65.7816 37.6425 66.7359 37.1997 67.7803 36.6774C69.2085 37.4928 70.5579 38.4389 71.8113 39.5036C68.934 41.8143 65.7463 43.709 62.3415 45.1323L56.7786 47.6011C51.3092 50.1559 45.4831 51.8641 39.5 52.667C33.5174 51.8644 27.6916 50.1573 22.222 47.604L16.6591 45.1304C13.2541 43.7076 10.0663 41.8128 7.18933 39.5016C8.44407 38.4366 9.79495 37.4904 11.2246 36.675C12.2664 37.1961 13.2203 37.6395 13.9863 37.9799ZM71.809 52.667C68.9317 54.9776 65.7439 56.8724 62.3392 58.2957L56.7763 60.7661C51.3077 63.3213 45.4824 65.03 39.5 65.8336C33.5174 65.0311 27.6916 63.324 22.222 60.7707L16.6591 58.297C13.2558 56.8742 10.0691 54.9807 7.19229 52.6719C8.44388 51.6057 9.79179 50.658 11.2187 49.8411C12.2631 50.3634 13.218 50.8065 13.9837 51.1472L19.5466 53.6209C25.8472 56.5703 32.5869 58.4717 39.5 59.2503C46.413 58.4715 53.1525 56.5693 59.4524 53.6186L65.0153 51.1482C65.7816 50.8075 66.7359 50.3648 67.7803 49.8424C69.2076 50.6574 70.5563 51.603 71.809 52.667Z" fill="url(#paint0_linear_103_911)"/>
<path d="M29.6249 25.6537C28.8484 25.6548 28.0965 25.3813 27.5021 24.8816C26.9077 24.3819 26.5091 23.6881 26.3768 22.9229C26.2444 22.1578 26.3869 21.3704 26.779 20.7001C27.171 20.0298 27.7875 19.5197 28.5193 19.26C32.035 17.8996 35.6993 16.9598 39.4358 16.4601C43.2176 16.9458 46.9271 17.8859 50.4839 19.26C51.3062 19.5541 51.978 20.1628 52.3514 20.9522C52.7249 21.7416 52.7695 22.6471 52.4754 23.4694C52.1812 24.2916 51.5725 24.9634 50.7831 25.3369C49.9937 25.7103 49.0883 25.7549 48.266 25.4608C45.4044 24.3705 42.4439 23.5603 39.4259 23.0418C36.462 23.5917 33.5523 24.4017 30.7306 25.4625C30.3757 25.5891 30.0017 25.6538 29.6249 25.6537Z" fill="url(#paint1_linear_103_911)"/>
<defs>
<linearGradient id="paint0_linear_103_911" x1="83.8509" y1="6.9301" x2="55.0673" y2="-17.3886" gradientUnits="userSpaceOnUse">
<stop stop-color="#BE39F6"/>
<stop offset="0.52689" stop-color="#D79DFF" stop-opacity="0.7"/>
<stop offset="1" stop-color="#772FF5"/>
</linearGradient>
<linearGradient id="paint1_linear_103_911" x1="50.9634" y1="14.7089" x2="31.8309" y2="23.9864" gradientUnits="userSpaceOnUse">
<stop stop-color="#409CF8"/>
<stop offset="0.421284" stop-color="#55C4F9"/>
<stop offset="1" stop-color="#6378F7"/>
</linearGradient>
</defs>
</svg>
