<svg width="79" height="79" viewBox="0 0 79 79" fill="none" xmlns="http://www.w3.org/2000/svg">
<g clip-path="url(#clip0_103_902)">
<path fill-rule="evenodd" clip-rule="evenodd" d="M43.7557 4.25573C44.373 3.63843 45.2102 3.29163 46.0832 3.29163C54.8103 3.3013 63.1772 6.7724 69.3482 12.9434C75.5191 19.1144 78.9902 27.4812 78.9999 36.2083C79.0154 40.5342 78.169 44.8199 76.5102 48.8152C74.8514 52.8104 72.4134 56.4353 69.3385 59.4781C68.7209 60.0928 67.8846 60.4374 67.0132 60.4363C66.1417 60.4351 65.3063 60.0882 64.6904 59.4718L47.6119 42.3914C46.0788 40.8669 44.8634 39.0535 44.036 37.0561C43.2086 35.0587 42.7856 32.917 42.7916 30.755V6.58329C42.7916 5.71029 43.1384 4.87304 43.7557 4.25573ZM52.2663 37.7366L66.8813 52.3516C70.4887 47.7458 72.4388 42.0587 72.4166 36.2083C72.4083 29.7964 70.0645 23.6071 65.8237 18.798C61.5829 13.9889 55.7354 10.8893 49.3749 10.079V30.755C49.3829 33.3719 50.4217 35.8803 52.2663 37.7366ZM36.2083 37.6239C36.2153 40.0588 37.1821 42.3927 38.8989 44.1193L56.1785 61.4006C56.7948 62.0165 57.1416 62.8517 57.1431 63.723C57.1446 64.5943 56.8006 65.4306 56.1864 66.0487C53.1436 69.1235 49.5188 71.5614 45.5235 73.2199C41.5282 74.8784 37.2425 75.7244 32.9167 75.7084C24.1866 75.7084 15.8141 72.2404 9.64107 66.0674C3.468 59.8943 0 51.5218 0 42.7918C0 34.0617 3.468 25.6893 9.64107 19.5162C15.8141 13.3431 24.1866 9.87512 32.9167 9.87512C33.7897 9.87512 34.6269 10.2219 35.2442 10.8392C35.8615 11.4565 36.2083 12.2938 36.2083 13.1668V37.6239ZM14.8762 61.9931C19.763 66.5795 26.2147 69.1301 32.9167 69.1251C38.7665 69.1465 44.4531 67.1974 49.06 63.5921L34.2425 48.7734C32.7741 47.3124 31.6099 45.5748 30.8173 43.661C30.0247 41.7472 29.6195 39.6953 29.625 37.6239V16.6625C22.975 17.4953 16.8927 20.8323 12.6174 25.9935C8.34219 31.1548 6.19573 37.752 6.6154 44.4408C7.03508 51.1296 9.98932 57.4067 14.8762 61.9931Z" fill="url(#paint0_linear_103_902)"/>
<path d="M19.75 59.2498C19.75 60.1228 20.0968 60.96 20.7141 61.5774C21.3314 62.1947 22.1687 62.5415 23.0417 62.5415H36.2083C37.0813 62.5415 37.9186 62.1947 38.5359 61.5774C39.1532 60.96 39.5 60.1228 39.5 59.2498C39.5 58.3768 39.1532 57.5395 38.5359 56.9222C37.9186 56.3049 37.0813 55.9581 36.2083 55.9581H23.0417C22.1687 55.9581 21.3314 56.3049 20.7141 56.9222C20.0968 57.5395 19.75 58.3768 19.75 59.2498Z" fill="url(#paint1_linear_103_902)"/>
</g>
<defs>
<linearGradient id="paint0_linear_103_902" x1="83.851" y1="3.67276" x2="52.8245" y2="-20.1578" gradientUnits="userSpaceOnUse">
<stop stop-color="#BE39F6"/>
<stop offset="0.52689" stop-color="#D79DFF" stop-opacity="0.7"/>
<stop offset="1" stop-color="#772FF5"/>
</linearGradient>
<linearGradient id="paint1_linear_103_902" x1="38.2221" y1="54.7042" x2="24.1346" y2="61.8573" gradientUnits="userSpaceOnUse">
<stop stop-color="#409CF8"/>
<stop offset="0.421284" stop-color="#55C4F9"/>
<stop offset="1" stop-color="#6378F7"/>
</linearGradient>
<clipPath id="clip0_103_902">
<rect width="79" height="79" fill="white"/>
</clipPath>
</defs>
</svg>
