<svg width="79" height="79" viewBox="0 0 79 79" fill="none" xmlns="http://www.w3.org/2000/svg">
<g clip-path="url(#clip0_103_919)">
<path d="M79 13.1668V6.58346C78.998 4.83806 78.3038 3.16473 77.0696 1.93055C75.8354 0.696369 74.1621 0.00212582 72.4167 0.00012207L65.8333 0.00012207C64.0879 0.00212582 62.4146 0.696369 61.1804 1.93055C59.9462 3.16473 59.252 4.83806 59.25 6.58346H19.75C19.748 4.83806 19.0538 3.16473 17.8196 1.93055C16.5854 0.696369 14.9121 0.00212582 13.1667 0.00012207L6.58333 0.00012207C4.83794 0.00212582 3.16461 0.696369 1.93043 1.93055C0.696247 3.16473 0.00200375 4.83806 0 6.58346L0 13.1668C0.00200375 14.9122 0.696247 16.5855 1.93043 17.8197C3.16461 19.0539 4.83794 19.7481 6.58333 19.7501V59.2501C4.83794 59.2521 3.16461 59.9464 1.93043 61.1805C0.696247 62.4147 0.00200375 64.0881 0 65.8335L0 72.4168C0.00200375 74.1622 0.696247 75.8355 1.93043 77.0697C3.16461 78.3039 4.83794 78.9981 6.58333 79.0001H13.1667C14.9121 78.9981 16.5854 78.3039 17.8196 77.0697C19.0538 75.8355 19.748 74.1622 19.75 72.4168H59.25C59.252 74.1622 59.9462 75.8355 61.1804 77.0697C62.4146 78.3039 64.0879 78.9981 65.8333 79.0001H72.4167C74.1621 78.9981 75.8354 78.3039 77.0696 77.0697C78.3038 75.8355 78.998 74.1622 79 72.4168V65.8335C78.998 64.0881 78.3038 62.4147 77.0696 61.1805C75.8354 59.9464 74.1621 59.2521 72.4167 59.2501V19.7501C74.1621 19.7481 75.8354 19.0539 77.0696 17.8197C78.3038 16.5855 78.998 14.9122 79 13.1668ZM65.8333 6.58346H72.4167L72.42 13.1668H65.8333V6.58346ZM6.58333 6.58346H13.1667L13.17 13.1668H6.58333V6.58346ZM6.58333 72.4168V65.8335H13.1667L13.17 72.4168H6.58333ZM72.42 72.4168H65.8333V65.8335H72.4167L72.42 72.4168ZM65.8333 59.2501C64.0879 59.2521 62.4146 59.9464 61.1804 61.1805C59.9462 62.4147 59.252 64.0881 59.25 65.8335H19.75C19.748 64.0881 19.0538 62.4147 17.8196 61.1805C16.5854 59.9464 14.9121 59.2521 13.1667 59.2501V19.7501C14.9121 19.7481 16.5854 19.0539 17.8196 17.8197C19.0538 16.5855 19.748 14.9122 19.75 13.1668H59.25C59.252 14.9122 59.9462 16.5855 61.1804 17.8197C62.4146 19.0539 64.0879 19.7481 65.8333 19.7501V59.2501Z" fill="url(#paint0_linear_103_919)"/>
<path d="M27.2784 23.1799C26.7092 23.0091 26.1043 22.9957 25.528 23.1411C24.9518 23.2864 24.4256 23.585 24.0054 24.0052C23.5851 24.4255 23.2865 24.9517 23.1412 25.5279C22.9959 26.1042 23.0093 26.709 23.18 27.2783L33.055 60.195C33.2583 60.8733 33.6749 61.4679 34.243 61.8907C34.811 62.3134 35.5003 62.5417 36.2084 62.5416C36.2759 62.5416 36.3466 62.5416 36.4174 62.535C37.1591 62.4878 37.8629 62.191 38.4144 61.6929C38.9659 61.1948 39.3327 60.5248 39.455 59.7917L42.3608 42.3607L59.7902 39.4548C60.5237 39.3327 61.1943 38.9659 61.6927 38.414C62.1911 37.8622 62.4879 37.1578 62.5348 36.4157C62.5818 35.6736 62.3761 34.9374 61.9512 34.3271C61.5264 33.7169 60.9074 33.2684 60.1951 33.0549L27.2784 23.1799ZM38.9599 36.2534C38.2832 36.366 37.6586 36.6872 37.1733 37.1721C36.6881 37.6571 36.3665 38.2815 36.2535 38.9581L35.289 44.7347L31.2403 31.2435L44.7361 35.2906L38.9599 36.2534Z" fill="url(#paint1_linear_103_919)"/>
</g>
<defs>
<linearGradient id="paint0_linear_103_919" x1="83.8509" y1="0.4159" x2="50.87" y2="-22.8049" gradientUnits="userSpaceOnUse">
<stop stop-color="#BE39F6"/>
<stop offset="0.52689" stop-color="#D79DFF" stop-opacity="0.7"/>
<stop offset="1" stop-color="#772FF5"/>
</linearGradient>
<linearGradient id="paint1_linear_103_919" x1="59.9855" y1="15.5172" x2="25.5332" y2="21.3485" gradientUnits="userSpaceOnUse">
<stop stop-color="#409CF8"/>
<stop offset="0.421284" stop-color="#55C4F9"/>
<stop offset="1" stop-color="#6378F7"/>
</linearGradient>
<clipPath id="clip0_103_919">
<rect width="79" height="79" fill="white"/>
</clipPath>
</defs>
</svg>
